<svg id="Layer_1" data-name="Layer 1" xmlns="http://www.w3.org/2000/svg" viewBox="0 0 432.58 81.81">
  <defs>
    <style>
      .cls-1 {
        fill: #0c102c;
      }
    </style>
  </defs>
  <title>Northlink_Logo_Landscape_Crop_Transparent</title>
  <g>
    <g>
      <path class="cls-1" d="M268.56,16.88h11.32a22.44,22.44,0,0,1,15.89,6q6.44,6,6.43,15.65t-6.43,15.65a22.41,22.41,0,0,1-15.89,6H268.56Zm4.21,39.51h7.11a18,18,0,0,0,13-4.94q5.13-5,5.13-12.93T292.87,25.6a18,18,0,0,0-13-5h-7.11Z"/>
      <path class="cls-1" d="M309.47,21.51a3,3,0,0,1-.87-2.16,3,3,0,0,1,.87-2.13,2.81,2.81,0,0,1,2.1-.9,2.78,2.78,0,0,1,2.1.9,3,3,0,0,1,0,4.26,2.78,2.78,0,0,1-2.1.9A2.86,2.86,0,0,1,309.47,21.51Zm4.08,9.71v29h-4V31.22Z"/>
      <path class="cls-1" d="M351.81,31.22v29a24.67,24.67,0,0,1-1.36,8.31,12.86,12.86,0,0,1-3.58,5.45,14.48,14.48,0,0,1-5.11,2.81,21.16,21.16,0,0,1-6.27.87,14.51,14.51,0,0,1-12.62-6.81l3-2.22a10.73,10.73,0,0,0,9.65,5.5q12.24,0,12.3-13.91V54.41a13.15,13.15,0,0,1-5.1,4.8,15.51,15.51,0,0,1-17.9-2.72,14.55,14.55,0,0,1-4.52-10.8,14.54,14.54,0,0,1,4.52-10.79,15.51,15.51,0,0,1,17.9-2.72,13.19,13.19,0,0,1,5.1,4.79V31.22ZM336.1,34a11.45,11.45,0,0,0-8.34,3.4,11.63,11.63,0,0,0,0,16.57,11.87,11.87,0,0,0,16.63,0,11.65,11.65,0,0,0,0-16.57A11.4,11.4,0,0,0,336.1,34Z"/>
      <path class="cls-1" d="M360.61,21.51a3,3,0,0,1-.87-2.16,3,3,0,0,1,.87-2.13,2.78,2.78,0,0,1,2.1-.9,2.81,2.81,0,0,1,2.1.9,3,3,0,0,1,0,4.26,2.93,2.93,0,0,1-4.2,0Zm4.08,9.71v29h-4V31.22Z"/>
      <path class="cls-1" d="M369.89,34.75V31.22H375V23.06h4v8.16h7.73v3.53h-7.73V60.17h-4V34.75Z"/>
      <path class="cls-1" d="M419.84,31.22v29h-4V54.41a13.28,13.28,0,0,1-5.1,4.8,15.51,15.51,0,0,1-17.9-2.72,14.55,14.55,0,0,1-4.52-10.8,14.54,14.54,0,0,1,4.52-10.79,15.51,15.51,0,0,1,17.9-2.72,13.33,13.33,0,0,1,5.1,4.79V31.22ZM404.13,34a11.47,11.47,0,0,0-8.35,3.4,11.65,11.65,0,0,0,0,16.57,11.88,11.88,0,0,0,16.64,0,11.65,11.65,0,0,0,0-16.57A11.4,11.4,0,0,0,404.13,34Z"/>
      <path class="cls-1" d="M432.58,16.32V60.17h-4V16.32Z"/>
    </g>
    <g>
      <path class="cls-1" d="M50,56.64a13.75,13.75,0,0,1-4.45-10.4A13.74,13.74,0,0,1,50,35.85,15.3,15.3,0,0,1,60.9,31.63a15.3,15.3,0,0,1,10.93,4.22,13.74,13.74,0,0,1,4.45,10.39,13.75,13.75,0,0,1-4.45,10.4A15.3,15.3,0,0,1,60.9,60.85,15.3,15.3,0,0,1,50,56.64ZM55.56,41a7.41,7.41,0,0,0,0,10.57,7.67,7.67,0,0,0,10.63,0,7.4,7.4,0,0,0,0-10.57,7.71,7.71,0,0,0-10.66,0Z"/>
      <path class="cls-1" d="M101.33,32.64l-2.2,7.25a7.93,7.93,0,0,0-4-1.07,4.89,4.89,0,0,0-4.27,2.11,9.42,9.42,0,0,0-1.49,5.55V60.14H81.49V32.35h7.84v3.2a8.75,8.75,0,0,1,7.37-3.92A10.27,10.27,0,0,1,101.33,32.64Z"/>
      <path class="cls-1" d="M103.73,39.53V32.35h4.46V24.51H116v7.84h6.47v7.18H116V60.14h-7.84V39.53Z"/>
      <path class="cls-1" d="M152.5,60.14h-7.84V43.75a5.31,5.31,0,0,0-1.39-3.83,5.16,5.16,0,0,0-7.19,0,5.31,5.31,0,0,0-1.39,3.83V60.14h-7.84V15.6h7.84V35.32a10.18,10.18,0,0,1,8.13-3.69,9.32,9.32,0,0,1,6.89,2.83,10.13,10.13,0,0,1,2.79,7.45Z"/>
      <path class="cls-1" d="M160.13,18.57h8.67V52.18h14.66v8H160.13Z"/>
      <path class="cls-1" d="M194.84,25.1a4.74,4.74,0,0,1-3.39,1.37,4.66,4.66,0,0,1-3.38-1.4,4.65,4.65,0,0,1,0-6.71,4.82,4.82,0,0,1,6.77,0,4.53,4.53,0,0,1,1.42,3.36A4.62,4.62,0,0,1,194.84,25.1Zm.53,7.25V60.14h-7.84V32.35Z"/>
      <path class="cls-1" d="M228.2,60.14h-7.84V43.75a5.31,5.31,0,0,0-1.4-3.83,5.14,5.14,0,0,0-7.18,0,5.31,5.31,0,0,0-1.4,3.83V60.14h-7.84V32.35h7.84v3a10.2,10.2,0,0,1,8.14-3.69,9.32,9.32,0,0,1,6.89,2.83,10.13,10.13,0,0,1,2.79,7.45Z"/>
      <path class="cls-1" d="M242.87,15.6v29l12.59-12.95,6.17,3.92-10.15,9.92,11.34,11.46-6.41,3.92L242.87,46.18v14H235V15.6Z"/>
      <g>
        <polygon class="cls-1" points="22.51 41.56 4.24 19.34 4.24 20.9 4.24 56.14 0 56.14 5.99 63.51 11.98 56.14 7.63 56.14 7.63 28.1 43.87 72.49 43.87 67.83 28.82 49.24 22.51 41.56"/>
        <polygon class="cls-1" points="21.37 35.14 39.64 57.35 39.64 55.79 39.64 20.56 43.87 20.56 37.88 13.19 31.89 20.56 36.24 20.56 36.24 48.59 0 4.21 0 8.86 15.05 27.46 21.37 35.14"/>
      </g>
    </g>
  </g>
</svg>
